<?xml version="1.0" standalone="no"?>
<!DOCTYPE svg PUBLIC "-//W3C//DTD SVG 20010904//EN"
 "http://www.w3.org/TR/2001/REC-SVG-20010904/DTD/svg10.dtd">
<svg version="1.0" xmlns="http://www.w3.org/2000/svg"
 width="512.000000pt" height="512.000000pt" viewBox="0 0 512.000000 512.000000"
 preserveAspectRatio="xMidYMid meet">
<metadata>
Created by potrace 1.11, written by Peter Selinger 2001-2013
</metadata>
<g transform="translate(0.000000,512.000000) scale(0.100000,-0.100000)"
fill="#000000" stroke="none">
<path d="M0 4645 l0 -475 2555 0 2555 0 0 -830 0 -830 -2555 0 -2555 0 0
-1255 0 -1255 2560 0 2560 0 0 2560 0 2560 -2560 0 -2560 0 0 -475z m2476
-2970 c40 -88 85 -187 100 -220 85 -190 229 -494 243 -515 10 -14 20 -29 23
-35 4 -6 -30 -9 -94 -8 l-100 2 -34 82 c-58 141 -35 129 -249 129 -136 0 -186
-3 -192 -12 -4 -7 -26 -55 -48 -106 l-40 -93 -83 -2 c-45 -1 -82 -1 -82 0 0 1
22 49 49 105 28 57 93 200 146 318 53 118 105 233 115 256 11 23 20 44 20 47
0 3 22 53 50 112 47 100 51 106 77 103 24 -3 34 -18 99 -163z m2175 78 c23
-49 63 -137 89 -198 27 -60 59 -132 73 -160 13 -27 35 -72 47 -100 87 -193
155 -334 171 -356 10 -15 19 -30 19 -33 0 -4 -43 -5 -96 -4 l-97 3 -39 90
c-22 50 -44 96 -50 103 -15 17 -371 17 -385 0 -6 -7 -27 -54 -48 -105 l-39
-92 -83 -3 c-46 -2 -83 -2 -83 0 0 1 29 64 64 140 35 75 74 160 86 187 13 28
41 91 64 140 23 50 80 177 126 282 80 181 87 193 112 193 24 0 31 -9 69 -87z
m-4071 48 c126 -43 222 -129 278 -248 23 -49 27 -74 30 -170 4 -94 1 -122 -17
-175 -44 -131 -163 -246 -298 -288 -56 -17 -93 -20 -272 -20 l-206 0 0 466 0
467 210 -5 c183 -5 218 -8 275 -27z m872 19 c134 -19 234 -90 259 -182 15 -56
6 -174 -16 -216 -17 -34 -87 -92 -110 -92 -7 0 -18 -7 -25 -15 -10 -12 -6 -25
26 -72 21 -32 60 -92 88 -133 27 -41 73 -103 103 -138 29 -35 53 -67 53 -70 0
-4 -46 -6 -102 -5 -96 1 -104 3 -119 25 -62 90 -199 317 -199 329 0 6 -29 9
-67 7 l-68 -3 1 -177 1 -178 -78 0 c-44 0 -81 -1 -85 -2 -3 -2 -6 207 -7 465
l-2 467 140 0 c77 0 170 -5 207 -10z m1741 -47 c19 -32 53 -92 76 -133 157
-282 208 -365 225 -365 17 0 64 73 154 239 15 27 32 56 37 65 6 9 39 69 75
134 l65 117 63 0 c34 0 62 -1 63 -2 2 -14 20 -321 29 -503 5 -126 15 -263 20
-303 18 -131 23 -122 -75 -122 -47 0 -85 3 -85 8 -1 45 -21 427 -26 490 -8
108 -24 109 -83 4 -24 -42 -62 -108 -84 -147 -22 -38 -61 -108 -87 -155 -56
-102 -75 -111 -108 -48 -25 49 -24 47 -152 262 -86 144 -112 178 -126 164 -5
-5 -18 -199 -32 -456 l-7 -123 -88 -2 -87 -2 5 45 c3 25 10 110 16 190 14 205
38 531 45 623 l7 77 63 0 63 0 34 -57z"/>
<path d="M2336 1517 c-7 -19 -17 -45 -21 -58 -4 -13 -11 -28 -15 -34 -4 -5
-13 -28 -20 -50 -7 -22 -22 -59 -32 -82 -33 -70 -27 -73 117 -73 96 0 127 3
131 14 4 11 -50 162 -86 241 -5 11 -14 32 -20 48 -13 37 -37 34 -54 -6z"/>
<path d="M4551 1528 c-5 -13 -32 -81 -61 -151 -28 -70 -49 -135 -46 -143 8
-20 254 -21 262 0 3 7 -17 67 -44 132 -27 66 -55 134 -62 152 -14 37 -37 42
-49 10z"/>
<path d="M278 1690 c-17 -10 -18 -37 -18 -329 0 -273 2 -320 15 -331 21 -17
174 -7 235 15 98 35 151 89 191 193 30 80 24 205 -14 278 -33 65 -113 137
-175 159 -59 20 -210 30 -234 15z"/>
<path d="M1277 1693 c-9 -8 -9 -276 -1 -297 8 -21 143 -22 182 -2 83 44 113
131 75 217 -27 61 -84 89 -180 89 -38 0 -73 -3 -76 -7z"/>
<path d="M942 3828 c-5 -7 -55 -114 -111 -238 -56 -124 -108 -238 -116 -255
-17 -37 -48 -106 -115 -255 -28 -63 -63 -134 -76 -158 -39 -67 -32 -73 87 -70
116 3 103 -7 155 121 l36 87 176 -2 176 -3 40 -102 41 -103 123 0 c84 0 122 4
122 11 0 6 -17 44 -38 83 -22 39 -57 112 -79 161 -23 50 -56 124 -76 165 -19
41 -83 181 -142 310 -60 129 -115 241 -124 248 -8 6 -27 12 -42 12 -14 0 -31
-6 -37 -12z m111 -535 l26 -63 -104 0 -104 0 25 63 c14 34 29 71 34 82 4 11
16 42 26 68 l17 48 27 -68 c15 -37 39 -96 53 -130z"/>
<path d="M1785 3827 c-64 -21 -97 -42 -142 -89 -67 -69 -90 -171 -62 -272 15
-55 105 -146 206 -208 144 -88 177 -151 113 -213 -24 -23 -41 -30 -89 -33 -66
-5 -143 16 -186 50 -14 11 -31 18 -38 15 -15 -6 -53 -158 -44 -179 3 -8 38
-25 79 -39 59 -19 94 -24 183 -24 99 0 116 3 169 28 76 35 141 89 165 135 43
85 35 217 -19 291 -27 36 -116 108 -216 173 -87 56 -117 103 -98 153 19 50
156 61 248 21 39 -17 57 -21 65 -13 16 16 14 152 -2 166 -49 40 -254 64 -332
38z"/>
<path d="M3093 3832 c-6 -4 -70 -138 -142 -297 -73 -160 -154 -337 -180 -395
-109 -234 -121 -261 -121 -275 0 -12 19 -15 99 -15 117 0 110 -5 162 125 l34
85 176 0 176 0 43 -105 43 -105 118 0 c65 0 120 4 123 8 2 4 -26 68 -63 142
-36 74 -113 236 -170 360 -57 124 -129 279 -159 345 -31 66 -60 123 -66 127
-14 10 -58 10 -73 0z m76 -465 c24 -61 46 -118 48 -124 4 -10 -19 -13 -97 -13
-93 0 -102 2 -96 18 50 132 91 232 95 232 4 0 26 -51 50 -113z"/>
<path d="M3735 3829 c-4 -5 -7 -227 -7 -492 l1 -482 103 0 103 0 5 285 5 284
240 -259 c132 -142 254 -274 271 -292 31 -33 85 -46 98 -24 4 5 7 225 7 488
l2 478 -107 3 -106 3 -2 -280 -3 -279 -215 229 c-118 126 -240 256 -271 289
-45 49 -61 60 -87 60 -17 0 -34 -5 -37 -11z"/>
<path d="M2329 3816 c-2 -2 -4 -220 -3 -483 l1 -478 109 0 109 0 0 480 0 480
-106 3 c-58 1 -107 1 -110 -2z"/>
</g>
</svg>
